<?xml version="1.0" standalone="no"?>
<!DOCTYPE svg PUBLIC "-//W3C//DTD SVG 20010904//EN"
 "http://www.w3.org/TR/2001/REC-SVG-20010904/DTD/svg10.dtd">
<svg version="1.0" xmlns="http://www.w3.org/2000/svg"
 width="500.000000pt" height="500.000000pt" viewBox="0 0 500.000000 500.000000"
 preserveAspectRatio="xMidYMid meet">
<metadata>
Created by potrace 1.14, written by Peter Selinger 2001-2017
</metadata>
<g transform="translate(0.000000,500.000000) scale(0.100000,-0.100000)"
fill="#000000" stroke="none">
<path d="M1107 3068 c-26 -80 -33 -131 -21 -173 4 -16 13 -21 39 -21 23 0 40
-7 54 -24 l20 -25 1 25 c0 14 11 44 25 68 23 41 24 46 10 78 -7 18 -29 54 -47
78 -18 24 -38 52 -43 61 -8 14 -16 1 -38 -67z"/>
<path d="M1410 3124 c-14 -7 -32 -14 -41 -14 -21 0 -81 -45 -96 -73 -17 -30
-17 -83 0 -69 6 6 33 12 59 15 25 3 51 8 56 11 6 3 18 30 27 59 9 28 20 60 26
70 11 20 4 20 -31 1z"/>
<path d="M3699 2998 c8 -302 -54 -589 -188 -873 -74 -156 -123 -199 -155 -137
-47 93 -72 406 -61 780 5 166 4 232 -4 232 -6 0 -11 -6 -12 -12 0 -7 -2 -21
-4 -31 -11 -57 -26 -329 -25 -432 1 -66 2 -125 1 -131 -1 -7 -25 -29 -53 -51
-29 -22 -79 -64 -110 -92 l-58 -53 0 146 c0 105 -4 156 -14 181 -28 66 -61 47
-241 -135 -187 -190 -263 -228 -295 -150 -18 43 -7 188 20 275 35 111 98 230
159 297 79 88 149 111 205 67 l26 -20 0 20 c0 45 -92 75 -155 51 -108 -41
-234 -231 -285 -430 -28 -109 -25 -235 7 -278 58 -78 124 -46 338 166 205 204
213 203 214 -23 0 -175 -3 -187 -89 -286 -173 -200 -249 -321 -258 -411 -9
-93 50 -128 120 -70 56 47 77 74 118 157 50 103 88 217 109 330 l16 89 88 78
c49 43 102 87 118 99 l29 20 0 -50 c0 -125 41 -304 81 -355 53 -68 115 0 215
234 111 260 154 472 154 759 0 94 -3 171 -7 171 -5 0 -6 -59 -4 -132z m-714
-915 c-11 -79 -64 -233 -112 -325 -85 -165 -193 -223 -193 -104 1 52 37 140
86 208 47 65 215 268 221 268 3 0 2 -21 -2 -47z"/>
<path d="M1053 2607 c-30 -21 -48 -45 -39 -54 2 -2 27 -1 55 3 57 7 83 33 60
60 -16 19 -38 16 -76 -9z"/>
<path d="M1146 2449 c-21 -30 -21 -116 0 -167 26 -68 90 -81 104 -23 l5 23 19
-21 c31 -34 90 -29 127 11 17 20 29 43 29 60 0 16 5 28 10 28 6 0 10 -5 10
-12 0 -6 2 -9 5 -6 12 12 -10 40 -52 68 -63 43 -104 63 -111 54 -4 -4 -1 -9 6
-11 30 -11 65 -50 57 -63 -6 -10 -11 -10 -20 4 -11 14 -13 11 -19 -24 -3 -22
-11 -40 -16 -40 -6 0 -10 5 -10 10 0 7 -7 7 -21 -1 -21 -11 -22 -10 -16 26 5
33 4 37 -13 32 -31 -8 -24 21 10 41 l30 18 -33 1 c-17 0 -44 4 -58 8 -21 5
-30 2 -43 -16z"/>
<path d="M1827 1722 c-32 -35 -10 -82 39 -82 28 0 31 12 7 31 -16 13 -17 12
-4 -3 12 -16 11 -18 -7 -18 -41 0 -55 51 -19 74 22 14 49 -2 58 -35 7 -23 7
-23 8 -2 2 46 -51 69 -82 35z"/>
<path d="M3381 1688 c23 -46 36 -64 26 -36 -7 19 22 47 43 41 9 -2 8 0 -3 7
-15 10 -21 8 -33 -7 -12 -16 -15 -16 -24 -3 -15 22 -12 30 8 24 14 -5 15 -4 2
5 -33 24 -41 12 -19 -31z"/>
<path d="M3291 1629 c-1 -23 -5 -26 -28 -23 l-28 4 29 -9 c15 -6 38 -18 50
-28 21 -18 21 -18 4 2 -9 11 -18 34 -21 50 -4 28 -4 28 -6 4z"/>
<path d="M1950 1601 c-5 -11 -10 -26 -10 -34 0 -18 32 -47 52 -47 19 0 48 32
48 53 0 42 -70 64 -90 28z m74 -13 c23 -37 -36 -77 -63 -44 -8 10 -11 26 -7
42 5 20 12 25 33 22 14 -2 31 -11 37 -20z"/>
<path d="M3131 1541 c-11 -7 -10 -16 9 -47 13 -22 25 -41 27 -43 7 -10 43 34
43 54 0 39 -43 59 -79 36z m67 -32 c2 -14 -3 -31 -11 -38 -12 -9 -19 -5 -35
21 -24 38 -20 50 16 46 21 -2 28 -9 30 -29z"/>
<path d="M2097 1513 c-3 -16 -9 -37 -13 -48 -7 -17 -3 -16 25 8 18 15 37 25
42 21 5 -3 9 2 9 11 0 17 -12 14 -43 -13 -16 -14 -17 -13 -11 16 4 18 4 32 2
32 -3 0 -8 -12 -11 -27z"/>
<path d="M2175 1473 c-17 -26 -19 -26 -26 -8 -6 16 -8 13 -8 -13 l-1 -33 31
36 c18 20 29 38 27 41 -3 2 -13 -8 -23 -23z"/>
<path d="M3050 1486 c0 -12 29 -76 34 -76 3 0 -2 17 -11 38 -16 38 -23 50 -23
38z"/>
<path d="M2267 1464 c8 -4 8 -14 -3 -41 -8 -19 -13 -40 -12 -45 2 -6 10 8 16
31 8 27 19 41 30 42 14 0 14 2 -3 9 -11 5 -24 9 -30 9 -5 -1 -5 -3 2 -5z"/>
<path d="M2973 1435 c0 -22 2 -30 4 -17 2 12 2 30 0 40 -3 9 -5 -1 -4 -23z"/>
<path d="M2925 1410 c16 -19 33 -39 37 -44 5 -6 8 -4 7 5 0 7 -17 27 -37 44
l-37 29 30 -34z"/>
<path d="M2364 1388 c-6 -26 -7 -45 -3 -42 5 3 9 12 9 20 0 12 7 14 30 9 25
-5 30 -3 30 12 0 13 -3 14 -8 5 -12 -18 -40 -4 -44 21 -2 14 -7 5 -14 -25z"/>
<path d="M2522 1365 c-27 -55 -27 -60 -4 -37 11 9 17 20 15 24 -2 3 0 14 4 24
6 16 7 16 14 -2 5 -13 8 -14 8 -4 2 40 -16 38 -37 -5z"/>
<path d="M2660 1378 c0 -13 -2 -34 -5 -48 -3 -14 0 -10 7 8 l11 34 18 -33 17
-33 7 32 c3 18 11 32 16 32 5 0 9 7 9 15 0 27 -17 16 -27 -17 l-9 -33 -17 33
c-21 38 -27 40 -27 10z"/>
<path d="M2411 1344 c0 -11 3 -14 6 -6 3 7 2 16 -1 19 -3 4 -6 -2 -5 -13z"/>
<path d="M2741 1350 c0 -8 4 -22 9 -30 12 -18 12 -2 0 25 -6 13 -9 15 -9 5z"/>
<path d="M2560 1330 c6 -11 12 -20 14 -20 2 0 2 9 -1 20 -3 11 -9 20 -15 20
-5 0 -4 -9 2 -20z"/>
</g>
</svg>
